<svg xmlns="http://www.w3.org/2000/svg" class="w-6 h-6 hover:text-red-600" fill="currentColor" viewBox="0 0 24 24">
  <path d="M24 4.557a9.93 9.93 0 0 1-2.828.775A4.932 4.932 0 0 0 23.337 3.1a9.864 9.864 0 0 1-3.127 1.195 4.92 4.92 0 0 0-8.384 4.482A13.978 13.978 0 0 1 1.671 3.149a4.822 4.822 0 0 0-.666 2.475 4.92 4.92 0 0 0 2.188 4.1 4.903 4.903 0 0 1-2.228-.616v.062a4.926 4.926 0 0 0 3.946 4.827 4.902 4.902 0 0 1-2.224.084 4.928 4.928 0 0 0 4.6 3.417A9.868 9.868 0 0 1 0 19.54a13.94 13.94 0 0 0 7.548 2.212c9.057 0 14.01-7.496 14.01-13.986 0-.213-.005-.425-.014-.636A10.012 10.012 0 0 0 24 4.557z"></path>
</svg>
